<svg width="24" height="24" viewBox="0 0 24 24" fill="none" xmlns="http://www.w3.org/2000/svg">
<path d="M21.0088 10.2412C20.4659 9.34425 19.5832 8.12934 18.3636 7.03934L20.6948 4.70731C21.0857 4.31631 21.0857 3.68425 20.6948 3.29325C20.304 2.90225 19.6722 2.90225 19.2813 3.29325L3.28657 19.2932C2.8957 19.6842 2.8957 20.3163 3.28657 20.7073C3.4815 20.9023 3.73742 21.0003 3.99333 21.0003C4.24925 21.0003 4.50517 20.9023 4.7001 20.7073L7.23427 18.1724C8.70379 19.0514 10.2963 19.5013 11.9917 19.5013C16.8201 19.5013 19.7092 15.9013 21.0088 13.7613C21.6585 12.6713 21.6585 11.3312 21.0088 10.2412ZM11.9917 16.5013C11.11 16.5013 10.3003 16.2344 9.60751 15.7984L11.08 14.3243C11.3619 14.4353 11.6678 14.5013 11.9907 14.5013C13.3702 14.5013 14.4899 13.3813 14.4899 12.0013C14.4899 11.9513 14.4899 11.9214 14.4799 11.8714C14.3399 11.9514 14.17 12.0013 13.99 12.0013C13.8201 12.0013 13.6681 11.9483 13.5292 11.8743L15.7905 9.61234C16.2283 10.3063 16.4892 11.1223 16.4892 12.0013C16.4902 14.4813 14.4709 16.5013 11.9917 16.5013ZM4.31424 15.6214C3.8244 15.0414 3.37457 14.4113 2.98469 13.7613C2.33491 12.6713 2.3349 11.3312 2.97469 10.2412C4.27426 8.10125 7.17329 4.50126 11.9917 4.50126C12.9214 4.50126 13.8211 4.63117 14.7408 4.91117C14.9107 4.96117 15.0407 5.10128 15.0907 5.27128C15.1307 5.44128 15.0807 5.62125 14.9508 5.74125L13.0614 7.63138C12.7215 7.55138 12.3616 7.50126 11.9917 7.50126C9.51252 7.50126 7.49319 9.52126 7.49319 12.0013C7.49319 12.3713 7.53318 12.7313 7.62315 13.0813L5.05399 15.6512C4.95402 15.7512 4.83408 15.8013 4.69412 15.8013C4.69412 15.8013 4.68411 15.8013 4.67411 15.8013C4.53416 15.7913 4.40421 15.7314 4.31424 15.6214Z" fill="#D9D9D9"/>
</svg>
