<svg id="Layer_1" height="512" viewBox="0 0 48 48" width="512" xmlns="http://www.w3.org/2000/svg" data-name="Layer 1"><path d="m43 20.433-3.464-2a2 2 0 0 0 -2.732.731l-10.085 17.469a4 4 0 0 0 -.535 2.066l.055 3.333a2 2 0 0 0 2.971 1.716l2.915-1.619a3.986 3.986 0 0 0 1.522-1.5l10.085-17.465a2 2 0 0 0 -.732-2.731zm-11.085 19.2a1.993 1.993 0 0 1 -.761.747l-2.915 1.62-.055-3.332a2.016 2.016 0 0 1 .267-1.035l10.085-17.467 3.464 2z"/><path d="m41 32.9a1 1 0 0 0 -1 1v3.1a3.027 3.027 0 0 1 -3.1 3 .959.959 0 0 0 -.95 1 1.044 1.044 0 0 0 1.05 1 5.006 5.006 0 0 0 5-5v-3.1a1 1 0 0 0 -1-1z"/><path d="m23.22 40h-14.22a3 3 0 0 1 -3-3v-4.586l4.877-4.877a3.007 3.007 0 0 1 4.246 0l1.76 1.76a3 3 0 0 0 4.234 0l5.76-5.76a3 3 0 0 1 3.942-.255 1 1 0 1 0 1.221-1.582 5 5 0 0 0 -6.577.425l-5.76 5.76a1 1 0 0 1 -1.406 0l-1.76-1.76a5.008 5.008 0 0 0 -7.074 0l-3.463 3.461v-20.586a3 3 0 0 1 3-3h28a3 3 0 0 1 3 3v6.82a1 1 0 0 0 2 0v-6.82a5.006 5.006 0 0 0 -5-5h-28a5.006 5.006 0 0 0 -5 5v28a5.006 5.006 0 0 0 5 5h14.22a1 1 0 0 0 0-2z"/><path d="m12 15a5 5 0 1 0 5-5 5.006 5.006 0 0 0 -5 5zm8 0a3 3 0 1 1 -3-3 3 3 0 0 1 3 3z"/></svg>